<?xml version="1.0" encoding="utf-8"?>
<!-- Generator: Adobe Illustrator 25.0.0, SVG Export Plug-In . SVG Version: 6.00 Build 0)  -->
<svg version="1.1" id="Layer_1" xmlns="http://www.w3.org/2000/svg" xmlns:xlink="http://www.w3.org/1999/xlink" x="0px" y="0px"
	 viewBox="0 0 1020.5 1020.5" style="enable-background:new 0 0 1020.5 1020.5;" xml:space="preserve">
<style type="text/css">
	.st0{fill:#9343CE;}
	.st1{fill:#FFFFFF;}
</style>
<rect x="-747.5" y="-1203.2" style="fill:none;" width="166" height="212"/>
<g>
	<g>
		<path class="st0" d="M390.4,441.9l-77.1,6c-99.4,7.9-176.1,90.8-176.1,190.5v180.1c0,98.6,75,181.1,173.2,190.3l81.9,7.7
			c50.5,6.2,210.5,4.4,264.3-1.2l54.7-5.5c97.6-9.9,172-92.1,172-190.2v-182c0-99.4-76.2-182.2-175.3-190.5l-54.1-4.6
			C646,442,390.4,441.9,390.4,441.9z"/>
	</g>
	<g>
		<path class="st1" d="M356.3,533.8c51.9,0,69.9,7,86.3,33.8c11.7,20.4,15.2,37.3,15.2,80.4c0,53.6-4.1,73.4-20.4,91.5
			c-14,16.3-37.9,25.1-70.5,25.1h-7.6v157.9H305V533.8H356.3z M366.7,714.4c19.8,0,30.9-5.8,35-18.7c1.7-6.4,3.5-26.8,3.5-46.6
			c0-19.2-1.7-39.6-3.5-46c-4.1-12.8-15.2-18.6-35-18.6h-7.6v130H366.7z"/>
		<path class="st1" d="M545.7,585.6H495v-51.9h50.7V585.6z M545.7,922.5H495V632.9h50.7V922.5z"/>
		<path class="st1" d="M641.8,533.8c51.9,0,69.9,7,86.3,33.8c11.7,20.4,15.2,37.3,15.2,80.4c0,53.6-4.1,73.4-20.4,91.5
			c-14,16.3-37.9,25.1-70.5,25.1h-7.6v157.9h-54.2V533.8H641.8z M652.3,714.4c19.8,0,30.9-5.8,35-18.7c1.7-6.4,3.5-26.8,3.5-46.6
			c0-19.2-1.7-39.6-3.5-46c-4.1-12.8-15.2-18.6-35-18.6h-7.6v130H652.3z"/>
	</g>
	<g>
		<path class="st0" d="M497.9,0v50.7h-76.9v109h53.6v50.7h-53.6V338h81.6v50.7H366.7V0H497.9z"/>
		<path class="st0" d="M530.5,338l96.7-287.3h-85.7V0h139.9v50.7L584.7,338h96.7v50.7H530.5V338z"/>
	</g>
</g>
</svg>
