<?xml version="1.0" encoding="utf-8"?>
<!-- Generator: Adobe Illustrator 25.0.0, SVG Export Plug-In . SVG Version: 6.00 Build 0)  -->
<svg version="1.1" xmlns="http://www.w3.org/2000/svg" xmlns:xlink="http://www.w3.org/1999/xlink" x="0px" y="0px"
	 viewBox="0 0 1020.5 1020.5" style="enable-background:new 0 0 1020.5 1020.5;" xml:space="preserve">
<style type="text/css">
	.st0{opacity:0.5;}
	.st1{fill:#9343CE;}
	.st2{fill:#FFFFFF;}
</style>
<g class="st0">
	<g id="Layer_1">
		<rect x="-747.5" y="-1203.2" style="fill:none;" width="166" height="212"/>
	</g>
</g>
<g>
	<g>
		<path class="st1" d="M346.3,114.5l-105.4,8.3C104.9,133.6,0,247,0,383.4v246.3c0,134.9,102.6,247.7,236.9,260.4l112,10.5
			c69,8.4,287.9,6,361.5-1.6l74.9-7.6c133.5-13.5,235.2-125.9,235.2-260.1V382.4c0-136-104.2-249.3-239.7-260.6l-74-6.2
			C695.9,114.7,346.3,114.5,346.3,114.5z"/>
	</g>
	<g>
		<path class="st2" d="M288,215.2c77.6,0,104.6,10.5,129.1,50.6c17.4,30.5,22.7,55.8,22.7,120.3c0,80.2-6.1,109.9-30.5,136.9
			c-20.9,24.4-56.7,37.5-105.5,37.5h-11.3v236.3h-81.1V215.2H288z M303.7,485.6c29.7,0,46.2-8.7,52.3-27.9
			c2.6-9.6,5.2-40.1,5.2-69.8c0-28.8-2.6-59.3-5.2-68.9c-6.1-19.2-22.7-27.9-52.3-27.9h-11.3v194.5H303.7z"/>
		<path class="st2" d="M571.5,292.8h-75.9v-77.6h75.9V292.8z M571.5,796.9h-75.9V363.5h75.9V796.9z"/>
		<path class="st2" d="M715.4,215.2c77.6,0,104.6,10.5,129.1,50.6c17.4,30.5,22.7,55.8,22.7,120.3c0,80.2-6.1,109.9-30.5,136.9
			c-20.9,24.4-56.7,37.5-105.5,37.5h-11.3v236.3h-81.1V215.2H715.4z M731,485.6c29.7,0,46.2-8.7,52.3-27.9
			c2.6-9.6,5.2-40.1,5.2-69.8c0-28.8-2.6-59.3-5.2-68.9c-6.1-19.2-22.7-27.9-52.3-27.9h-11.3v194.5H731z"/>
	</g>
</g>
</svg>
